# xmcd
#
# Track frame offsets:
#	150
#	11470
#	23060
#	37482
#	48547
#	64092
#	78137
#	90802
#	102750
#	116067
#	130662
#	147955
#	158087
#	170770
#	183312
#	198155
#	214732
#	226880
#	239255
#	256587
#	270560
#	282430
#	298307
#	310130
#	322792
#
# Disc length: 4480 seconds
#
# Revision: 1
# Processed by: cddbd v1.5PL3 Copyright (c) Steve Scherf et al.
# Submitted via: audiograbber 1.80
#
DISCID=55117e19
DTITLE=^billy stone - West Texas Sky
DYEAR=1900
DGENRE=
TTITLE0=Brand New Shade Of Red 
TTITLE1=Into Every Life (A Little Love Must Fall) 
TTITLE2=When Two People Meet 
TTITLE3=Just Like A Diamond 
TTITLE4=West Texas Sky 
TTITLE5=It Was You 
TTITLE6=Pictures Never Lie 
TTITLE7=You Just Don't Know What You've Got 
TTITLE8=Holmes County Home 
TTITLE9=Miz Leah 
TTITLE10=Family Reunion 
TTITLE11=My Heart Jumped Over The Moon 
TTITLE12=All Love Needs 
TTITLE13=Love, Love, Love 
TTITLE14=That Empty Chair 
TTITLE15=The Last Dallas Cowboy 
TTITLE16=Walter Petty 
TTITLE17=What In The World (Is This World Coming To) 
TTITLE18=This Old .22 
TTITLE19=Grandma's Old Gas Stove 
TTITLE20=The Master Electrician 
TTITLE21=Ain't No Tellin' What A Fool Will Do 
TTITLE22=What Are We Trying To Prove 
TTITLE23=Sight For Sore Ears 
TTITLE24=Little Brother 
EXTD=
EXTT0=
EXTT1=
EXTT2=
EXTT3=
EXTT4=
EXTT5=
EXTT6=
EXTT7=
EXTT8=
EXTT9=
EXTT10=
EXTT11=
EXTT12=
EXTT13=
EXTT14=
EXTT15=
EXTT16=
EXTT17=
EXTT18=
EXTT19=
EXTT20=
EXTT21=
EXTT22=
EXTT23=
EXTT24=
PLAYORDER=
